<?xml version="1.0" encoding="UTF-8"?>
<svg xmlns="http://www.w3.org/2000/svg" xmlns:xlink="http://www.w3.org/1999/xlink" width="80px" height="80px" viewBox="0 0 80 80" version="1.1">
<g id="surface1">
<path style=" stroke:none;fill-rule:nonzero;fill:rgb(0%,0%,0%);fill-opacity:1;" d="M 28.246094 56 L 40 44.246094 L 51.753906 56 L 56 51.753906 L 44.246094 40 L 56 28.246094 L 51.753906 24 L 40 35.753906 L 28.246094 24 L 24 28.246094 L 35.753906 40 L 24 51.753906 Z M 40 72 C 35.609375 72 31.472656 71.167969 27.585938 69.5 C 23.695312 67.832031 20.292969 65.542969 17.375 62.625 C 14.457031 59.707031 12.167969 56.304688 10.5 52.414062 C 8.832031 48.527344 8 44.390625 8 40 C 8 35.554688 8.832031 31.402344 10.5 27.539062 C 12.167969 23.679688 14.457031 20.292969 17.375 17.375 C 20.292969 14.457031 23.695312 12.167969 27.585938 10.5 C 31.472656 8.832031 35.609375 8 40 8 C 44.445312 8 48.597656 8.832031 52.460938 10.5 C 56.320312 12.167969 59.707031 14.457031 62.625 17.375 C 65.542969 20.292969 67.832031 23.679688 69.5 27.539062 C 71.167969 31.402344 72 35.554688 72 40 C 72 44.390625 71.167969 48.527344 69.5 52.414062 C 67.832031 56.304688 65.542969 59.707031 62.625 62.625 C 59.707031 65.542969 56.320312 67.832031 52.460938 69.5 C 48.597656 71.167969 44.445312 72 40 72 Z M 40 72 "/>
</g>
</svg>
