<?xml version="1.0" encoding="UTF-8"?>
<svg xmlns="http://www.w3.org/2000/svg" xmlns:xlink="http://www.w3.org/1999/xlink" width="80px" height="80px" viewBox="0 0 80 80" version="1.1">
<g id="surface1">
<path style=" stroke:none;fill-rule:nonzero;fill:rgb(0%,0%,0%);fill-opacity:1;" d="M 22.5 73.332031 C 18.167969 73.332031 14.445312 71.777344 11.332031 68.667969 C 8.222656 65.554688 6.667969 61.832031 6.667969 57.5 C 6.667969 53.167969 8.222656 49.445312 11.332031 46.332031 C 14.445312 43.222656 18.167969 41.667969 22.5 41.667969 C 26.832031 41.667969 30.554688 43.222656 33.667969 46.332031 C 36.777344 49.445312 38.332031 53.167969 38.332031 57.5 C 38.332031 61.832031 36.777344 65.554688 33.667969 68.667969 C 30.554688 71.777344 26.832031 73.332031 22.5 73.332031 Z M 69.667969 70 L 47.75 48.082031 C 46.972656 48.695312 46.097656 49.292969 45.125 49.875 C 44.152344 50.457031 43.222656 50.945312 42.332031 51.332031 C 42.054688 50.554688 41.75 49.765625 41.417969 48.957031 C 41.082031 48.152344 40.695312 47.417969 40.25 46.75 C 43.25 45.582031 45.792969 43.652344 47.875 40.957031 C 49.957031 38.265625 51 35.054688 51 31.332031 C 51 26.832031 49.417969 22.984375 46.25 19.792969 C 43.082031 16.597656 39.25 15 34.75 15 C 30.195312 15 26.320312 16.597656 23.125 19.792969 C 19.929688 22.984375 18.332031 26.832031 18.332031 31.332031 C 18.332031 32.277344 18.429688 33.265625 18.625 34.292969 C 18.820312 35.320312 19.054688 36.195312 19.332031 36.917969 C 18.609375 37.027344 17.804688 37.207031 16.917969 37.457031 C 16.027344 37.707031 15.222656 38 14.5 38.332031 C 14.109375 37.332031 13.820312 36.222656 13.625 35 C 13.429688 33.777344 13.332031 32.554688 13.332031 31.332031 C 13.332031 25.390625 15.417969 20.347656 19.582031 16.207031 C 23.75 12.070312 28.804688 10 34.75 10 C 40.640625 10 45.652344 12.082031 49.792969 16.25 C 53.929688 20.417969 56 25.445312 56 31.332031 C 56 33.722656 55.582031 36.082031 54.75 38.417969 C 53.917969 40.75 52.777344 42.777344 51.332031 44.5 L 73.332031 66.332031 Z M 16.75 65.332031 L 22.5 59.582031 L 28.167969 65.25 L 30.082031 63.332031 L 24.332031 57.582031 L 30.25 51.667969 L 28.332031 49.75 L 22.5 55.582031 L 16.667969 49.75 L 14.75 51.667969 L 20.582031 57.5 L 14.75 63.332031 Z M 16.75 65.332031 "/>
</g>
</svg>
